<svg xmlns="http://www.w3.org/2000/svg" xmlns:xlink="http://www.w3.org/1999/xlink" viewBox="0 0 375 175"><defs><clipPath id="a" transform="translate(5 -13)"><path d="M26.5,137h54a6.5,6.5,0,0,1,0,13h-54a6.5,6.5,0,0,1,0-13Z" style="fill:none;clip-rule:evenodd"/></clipPath><clipPath id="b" transform="translate(5 -13)"><rect x="-501" y="-141" width="1366" height="946" style="fill:none"/></clipPath><clipPath id="c" transform="translate(5 -13)"><rect x="148" y="18" width="162" height="18" rx="8" ry="8" style="fill:none"/></clipPath><clipPath id="e" transform="translate(5 -13)"><path d="M96.5,41h103a6.5,6.5,0,0,1,0,13H96.5a6.5,6.5,0,0,1,0-13Z" style="fill:none;clip-rule:evenodd"/></clipPath><clipPath id="g" transform="translate(5 -13)"><rect y="61" width="306" height="18" rx="8" ry="8" style="fill:none"/></clipPath><clipPath id="i" transform="translate(5 -13)"><rect x="197" y="91" width="168" height="18" rx="8" ry="8" style="fill:none"/></clipPath><clipPath id="k" transform="translate(5 -13)"><rect x="197" y="141" width="106" height="18" rx="8" ry="8" style="fill:none"/></clipPath><clipPath id="m" transform="translate(5 -13)"><rect x="141" y="165" width="162" height="18" rx="8" ry="8" style="fill:none"/></clipPath><clipPath id="o" transform="translate(5 -13)"><path d="M39.5,114h209a6.5,6.5,0,0,1,0,13H39.5a6.5,6.5,0,0,1,0-13Z" style="fill:none;clip-rule:evenodd"/></clipPath><clipPath id="q" transform="translate(5 -13)"><path d="M102.93,174H86q.94,6.3,4.7,8.1t177.72,0Q275,180.3,275,174H254.31" style="fill:none;clip-rule:evenodd"/></clipPath><clipPath id="s" transform="translate(5 -13)"><rect x="102" y="93" width="162" height="82" style="fill:none"/></clipPath><clipPath id="w" transform="translate(5 -13)"><rect x="108" y="98" width="150" height="72" style="fill:none"/></clipPath><clipPath id="ab" transform="translate(5 -13)"><path d="M262.22,93l.78.78L260.78,96l-.78-.78Zm3.56,0L268,95.22l-.78.78L265,93.78Zm-3.56-2L260,88.78l.78-.78L263,90.22Zm3.56,0-.78-.78L267.22,88l.78.78Z" style="fill:none;clip-rule:evenodd"/></clipPath><clipPath id="ad" transform="translate(5 -13)"><path d="M61,168v-2h5v2Zm11-5v-2h6v2Zm-5,5v-2H79v2Zm-12-5v-2H70v2Z" style="fill:none;clip-rule:evenodd"/></clipPath><clipPath id="af" transform="translate(5 -13)"><path d="M253,65V63h4v2Zm10-6V57h6v2Zm-4,6V63h11v2Zm-10-6V57h13v2Z" style="fill:none;clip-rule:evenodd"/></clipPath></defs><title>autocredenciamento_passo_1</title><line x1="80" y1="169.5" x2="294.5" y2="169.5" style="fill:none;stroke:#17c9b2;stroke-linecap:square;stroke-miterlimit:10;stroke-width:2px"/><line x1="39.5" y1="169.5" x2="75" y2="169.5" style="fill:none;stroke:#17c9b2;stroke-linecap:square;stroke-miterlimit:10;stroke-width:2px"/><line x1="301.5" y1="169.25" x2="321.5" y2="169.25" style="fill:none;stroke:#17c9b2;stroke-linecap:square;stroke-miterlimit:10;stroke-width:2px"/><g style="clip-path:url(#a)"><g style="clip-path:url(#b)"><rect x="20" y="119" width="77" height="23" style="fill:#d9e4ea;opacity:0.5094000101089478"/></g></g><g style="clip-path:url(#c)"><g style="clip-path:url(#b)"><rect x="148" width="172" height="28" style="fill:#d9e4ea;opacity:0.5094000101089478"/></g></g><g style="clip-path:url(#e)"><g style="clip-path:url(#b)"><rect x="90" y="23" width="126" height="23" style="fill:#d9e4ea;opacity:0.5094000101089478"/></g></g><g style="clip-path:url(#g)"><g style="clip-path:url(#b)"><rect y="43" width="316" height="28" style="fill:#d9e4ea;opacity:0.5094000101089478"/></g></g><g style="clip-path:url(#i)"><g style="clip-path:url(#b)"><rect x="197" y="73" width="178" height="28" style="fill:#d9e4ea;opacity:0.5094000101089478"/></g></g><g style="clip-path:url(#k)"><g style="clip-path:url(#b)"><rect x="197" y="123" width="116" height="28" style="fill:#d9e4ea;opacity:0.5094000101089478"/></g></g><g style="clip-path:url(#m)"><g style="clip-path:url(#b)"><rect x="141" y="147" width="172" height="28" style="fill:#d9e4ea;opacity:0.5094000101089478"/></g></g><g style="clip-path:url(#o)"><g style="clip-path:url(#b)"><rect x="33" y="96" width="232" height="23" style="fill:#d9e4ea;opacity:0.5094000101089478"/></g></g><g style="clip-path:url(#q)"><g style="clip-path:url(#b)"><rect x="86" y="156" width="199" height="19" style="fill:#fff"/></g></g><path d="M102.93,174H86q.94,6.3,4.7,8.1t177.72,0Q275,180.3,275,174H254.31" transform="translate(5 -13)" style="fill:none;stroke:#8459b9;stroke-miterlimit:10"/><g style="clip-path:url(#s)"><g style="clip-path:url(#b)"><rect x="107" y="80" width="162" height="82" style="fill:#fff"/></g></g><g style="clip-path:url(#s)"><g style="clip-path:url(#b)"><rect x="107" y="80" width="162" height="82" style="fill:none;stroke:#8459b9;stroke-miterlimit:10;stroke-width:2px"/></g></g><g style="opacity:0.699999988079071;isolation:isolate"><g style="clip-path:url(#w)"><g style="clip-path:url(#w)"><g style="clip-path:url(#w)"><rect x="113" y="85" width="150" height="72" style="fill:#ebf1f4"/></g></g><g style="clip-path:url(#w)"><g style="clip-path:url(#w)"><rect x="113" y="85" width="150" height="72" style="fill:none;stroke:#8459b9;stroke-miterlimit:10;stroke-width:2px"/></g></g></g></g><path d="M173,145.23q9,7,21,1" transform="translate(5 -13)" style="fill:none;stroke:#9d7bc7;stroke-miterlimit:10"/><path d="M102,136q-9,1-17-10" transform="translate(5 -13)" style="fill:none;stroke:#8459b9;stroke-miterlimit:10"/><path d="M264,137q2,9,11,9" transform="translate(5 -13)" style="fill:none;stroke:#8459b9;stroke-miterlimit:10"/><text transform="translate(172.32 129)" style="font-size:24px;fill:#8459b9;font-family:UniNeueBold, Uni Neue;font-weight:700">me</text><g style="clip-path:url(#ab)"><g style="clip-path:url(#b)"><rect x="260" y="70" width="18" height="18" style="fill:#858c8f"/></g></g><circle cx="306" cy="146" r="4" style="fill:none;stroke:#858c8f;stroke-miterlimit:10;stroke-width:2px"/><circle cx="80" cy="55" r="4" style="fill:none;stroke:#858c8f;stroke-miterlimit:10;stroke-width:2px"/><circle cx="93" cy="64" r="3" style="fill:none;stroke:#858c8f;stroke-miterlimit:10;stroke-width:2px"/><g style="clip-path:url(#ad)"><g style="clip-path:url(#b)"><rect x="55" y="143" width="34" height="17" style="fill:#858c8f"/></g></g><g style="clip-path:url(#af)"><g style="clip-path:url(#b)"><rect x="249" y="39" width="31" height="18" style="fill:#858c8f"/></g></g></svg>